<?xml version="1.0" standalone="no"?>
<!DOCTYPE svg PUBLIC "-//W3C//DTD SVG 20010904//EN"
 "http://www.w3.org/TR/2001/REC-SVG-20010904/DTD/svg10.dtd">
<svg version="1.0" xmlns="http://www.w3.org/2000/svg"
 width="600.000000pt" height="600.000000pt" viewBox="0 0 600.000000 600.000000"
 preserveAspectRatio="xMidYMid meet">
<metadata>
Created by potrace 1.14, written by Peter Selinger 2001-2017
</metadata>
<g transform="translate(0.000000,600.000000) scale(0.100000,-0.100000)"
fill="#000000" stroke="none">
<path d="M0 3000 l0 -3000 3000 0 3000 0 0 270 0 270 -25 0 c-20 0 -25 5 -25
24 0 17 -31 55 -107 133 -103 104 -111 109 -168 122 -33 7 -114 33 -179 57
-90 33 -134 44 -177 44 -88 0 -105 10 -112 64 -4 25 -18 68 -31 95 -23 45 -30
51 -88 70 -34 12 -70 21 -81 21 -11 0 -32 11 -48 25 -53 44 -176 60 -229 30
-14 -8 -33 -14 -42 -15 -25 0 -95 98 -118 166 -15 45 -60 275 -60 306 0 3 10
8 21 11 15 4 27 -1 38 -14 16 -20 18 -20 96 -4 44 9 100 26 125 38 l45 22 3
121 c3 135 -8 201 -56 330 -30 82 -84 174 -122 209 -14 13 -20 30 -19 59 1 23
3 33 6 23 4 -16 12 -17 71 -12 37 4 85 11 107 16 63 14 149 11 183 -7 30 -15
43 -34 23 -34 -15 0 -23 -32 -11 -44 6 -6 47 -11 92 -11 l80 0 19 -34 c22 -41
35 -51 72 -51 38 0 190 -28 255 -46 32 -9 71 -13 100 -10 99 12 185 11 189 -1
3 -8 14 -11 28 -7 12 3 26 1 29 -5 4 -6 25 -8 51 -5 36 4 45 2 45 -11 0 -8 5
-15 10 -15 7 0 10 450 10 1329 l0 1330 -30 21 c-17 12 -28 26 -25 31 4 5 1 9
-4 9 -6 0 -11 -6 -11 -12 0 -7 -5 -5 -11 5 -5 9 -18 17 -27 18 -14 0 -13 2 3
8 12 5 33 2 52 -6 18 -7 37 -13 43 -13 7 0 10 138 10 421 0 399 -1 420 -18
415 -32 -11 -128 -9 -150 3 -11 6 -28 8 -36 5 -18 -7 -22 11 -5 21 7 5 4 13
-8 24 -16 15 -44 18 -183 21 -91 2 -197 3 -237 2 -40 -2 -74 2 -78 8 -3 6 0 7
9 4 12 -5 16 0 16 19 0 14 5 29 10 32 16 10 12 29 -10 53 -17 18 -27 21 -67
15 -37 -5 -48 -3 -59 12 -7 10 -20 15 -28 12 -9 -4 -18 -2 -21 3 -4 6 -950 10
-2571 10 l-2564 0 0 -3000z m1120 2781 c0 -21 -23 -45 -33 -34 -4 3 -2 12 4
20 9 9 8 13 0 13 -6 0 -11 5 -11 10 0 6 9 10 20 10 13 0 20 -7 20 -19z m4643
-8 c-7 -2 -21 -2 -30 0 -10 3 -4 5 12 5 17 0 24 -2 18 -5z m-118 -13 c-3 -5
-11 -10 -16 -10 -6 0 -7 5 -4 10 3 6 11 10 16 10 6 0 7 -4 4 -10z m65 -5 c0
-2 -9 -3 -19 -2 -11 0 -18 5 -15 9 4 6 34 0 34 -7z m-5130 -5 c0 -5 -5 -10
-11 -10 -5 0 -7 5 -4 10 3 6 8 10 11 10 2 0 4 -4 4 -10z m3431 -659 c4 7 11
10 15 7 3 -4 -1 -14 -10 -23 -9 -9 -16 -14 -16 -12 0 3 -2 11 -3 19 -2 7 -2 9
1 4 2 -4 8 -2 13 5z m233 3 c9 -3 16 -12 16 -20 0 -10 10 -9 41 8 35 18 43 19
65 7 21 -11 27 -11 33 0 7 11 11 9 20 -5 8 -15 11 -15 11 -4 1 10 4 9 10 -5 7
-15 9 -16 9 -4 1 15 5 15 39 3 20 -7 45 -13 55 -14 9 0 17 -5 17 -11 0 -6 9
-9 20 -6 11 3 20 2 20 -3 0 -4 11 -6 25 -5 14 2 25 -1 25 -6 0 -5 7 -9 15 -9
8 0 15 5 15 11 0 5 5 7 10 4 6 -3 10 -14 10 -24 0 -19 10 -20 68 -6 19 4 36
14 39 21 8 21 20 17 28 -8 4 -14 8 -18 12 -10 6 16 23 16 23 -1 0 -9 10 -12
31 -9 22 3 30 1 25 -7 -4 -6 -14 -11 -22 -11 -8 0 -14 -5 -14 -11 0 -6 -7 -8
-16 -5 -8 3 -12 2 -9 -4 6 -9 -12 -14 -45 -12 -8 0 -17 -3 -20 -7 -8 -12 -70
-22 -70 -12 0 5 -24 3 -52 -5 -81 -21 -138 -17 -138 10 0 16 -42 14 -48 -2 -7
-22 -70 -26 -100 -6 -15 10 -31 17 -36 16 -5 -2 -13 3 -17 10 -7 10 -9 9 -9
-4 0 -10 -3 -17 -7 -17 -5 1 -10 0 -13 -1 -15 -7 -170 -6 -170 1 0 5 7 9 16 9
9 0 14 6 11 13 -2 6 3 19 11 27 14 13 15 12 9 -3 -4 -12 -3 -16 4 -12 19 13
30 56 18 72 -10 11 -14 11 -21 1 -8 -10 -11 -10 -15 0 -2 6 -8 10 -13 7 -4 -2
-15 4 -25 15 -20 22 -14 27 45 33 19 2 38 5 42 5 3 1 13 -1 22 -4z m-174 -13
c0 -5 -7 -11 -15 -15 -15 -5 -20 5 -8 17 9 10 23 9 23 -2z m40 -11 c0 -5 -7
-10 -15 -10 -8 0 -15 5 -15 10 0 6 7 10 15 10 8 0 15 -4 15 -10z m-392 -110
c6 0 12 -10 13 -22 0 -13 3 -17 6 -10 2 6 16 12 30 12 22 0 24 -2 13 -15 -7
-9 -10 -19 -6 -23 4 -4 13 1 20 11 9 12 30 18 70 19 31 2 56 8 56 13 0 6 10
-3 21 -18 14 -18 27 -26 39 -22 14 4 16 1 12 -20 -3 -20 -7 -23 -18 -14 -11 9
-14 8 -14 -2 0 -12 -2 -12 -9 0 -7 11 -13 9 -30 -8 -19 -19 -31 -21 -91 -19
-44 2 -70 7 -70 14 0 14 -49 25 -77 18 -18 -5 -20 -1 -19 46 1 46 3 50 21 46
11 -3 26 -6 33 -6z m295 -85 c-3 -9 -8 -14 -10 -11 -3 3 -2 9 2 15 9 16 15 13
8 -4z m567 -105 c0 -5 7 -10 15 -10 8 0 15 -4 15 -10 0 -11 -11 -13 -34 -4
-17 7 -22 34 -6 34 6 0 10 -4 10 -10z m-267 -78 c21 -2 23 -21 2 -28 -17 -7
-75 14 -75 26 0 6 16 7 73 2z m-2163 -462 c-6 -11 -13 -20 -15 -20 -3 0 -5 9
-5 20 0 11 7 20 15 20 13 0 14 -4 5 -20z m-60 -205 c0 -8 -7 -15 -15 -15 -8 0
-15 7 -15 15 0 8 7 15 15 15 8 0 15 -7 15 -15z m494 -955 c10 -13 9 -13 -6 -1
-10 7 -18 21 -17 30 0 13 1 14 6 1 3 -8 11 -22 17 -30z m1173 -26 c-3 -3 -12
-4 -19 -1 -8 3 -5 6 6 6 11 1 17 -2 13 -5z m13 -54 c0 -5 -5 -10 -11 -10 -5 0
-7 5 -4 10 3 6 8 10 11 10 2 0 4 -4 4 -10z m-20 -58 c0 -5 -7 -9 -15 -9 -8 0
-12 4 -9 9 3 4 9 8 15 8 5 0 9 -4 9 -8z m-43 -18 c-3 -3 -12 -4 -19 -1 -8 3
-5 6 6 6 11 1 17 -2 13 -5z m-12 -62 c-3 -3 -11 0 -18 7 -9 10 -8 11 6 5 10
-3 15 -9 12 -12z m-1798 -14 c-3 -8 -6 -5 -6 6 -1 11 2 17 5 13 3 -3 4 -12 1
-19z m1785 -62 c16 -12 16 -14 -7 -24 -15 -7 -25 -8 -25 -2 0 6 5 10 10 10 17
0 11 18 -7 23 -13 3 -14 5 -3 6 8 0 23 -6 32 -13z m-1702 -96 c6 -11 8 -20 6
-20 -3 0 -10 9 -16 20 -6 11 -8 20 -6 20 3 0 10 -9 16 -20z m-591 -93 c-13
-13 -28 -22 -32 -19 -9 5 31 42 46 42 6 0 -1 -10 -14 -23z m-51 -62 c-6 -14
-13 -23 -15 -21 -5 5 15 46 22 46 3 0 -1 -11 -7 -25z m682 -20 c0 -5 -5 -3
-10 5 -5 8 -10 20 -10 25 0 6 5 3 10 -5 5 -8 10 -19 10 -25z m1195 -90 c62
-18 184 -22 213 -6 17 9 39 7 108 -10 95 -24 124 -44 124 -87 0 -17 16 -48 40
-81 22 -29 40 -56 40 -60 0 -3 16 -17 35 -30 19 -13 35 -30 35 -37 0 -8 -22
-38 -48 -67 -27 -29 -59 -74 -71 -100 -18 -38 -34 -53 -74 -74 -29 -14 -56
-32 -62 -39 -5 -7 -26 -19 -45 -27 -34 -15 -34 -15 34 -10 66 6 68 5 62 -15
-6 -19 -4 -20 33 -15 28 4 64 -3 129 -26 50 -17 100 -31 111 -31 33 0 35 -24
13 -138 -12 -59 -24 -152 -27 -207 -3 -55 -12 -125 -19 -157 -9 -38 -10 -62
-3 -74 5 -9 13 -31 18 -48 4 -17 16 -56 27 -86 14 -38 22 -95 27 -186 l7 -131
-61 -53 c-34 -30 -78 -81 -99 -114 -46 -76 -98 -151 -137 -197 -26 -31 -40
-38 -113 -53 l-83 -17 -91 60 c-49 33 -110 68 -134 77 -36 13 -49 27 -75 72
-32 57 -292 323 -398 407 -127 101 -317 216 -404 244 -27 9 -35 16 -28 24 36
44 -6 147 -60 147 -25 0 -76 71 -84 120 -10 55 -14 122 -21 309 -5 143 -10
170 -75 401 -14 51 -29 173 -32 270 -4 96 11 68 18 -35 6 -88 16 -155 28 -185
3 -8 11 -42 17 -74 7 -33 19 -78 27 -100 22 -62 24 -75 30 -156 3 -41 9 -79
13 -84 12 -12 170 44 195 69 11 11 24 20 30 22 5 1 37 7 70 13 55 11 135 52
135 71 0 4 15 11 33 14 17 4 57 20 87 35 30 15 111 47 180 70 69 23 134 50
145 61 19 19 19 19 -7 19 -16 0 -38 11 -52 25 -16 16 -36 25 -56 25 -18 0 -29
4 -25 10 3 6 3 16 -2 23 -4 6 -8 19 -8 27 0 14 -74 35 -148 42 -16 1 -33 8
-39 15 -6 7 -25 13 -42 13 -18 0 -40 6 -50 13 -18 13 -18 14 0 22 10 4 30 9
43 11 14 1 34 7 45 12 21 10 142 30 221 36 47 4 93 21 119 44 11 9 16 12 13 5
-4 -6 -3 -15 3 -18 6 -4 9 -1 8 7 -2 8 6 12 22 11 14 -1 19 1 12 3 -6 3 -10
10 -7 14 3 5 -8 16 -25 25 -16 8 -30 18 -30 20 0 2 30 -11 68 -30 37 -19 90
-41 117 -50z m-2026 -32 c-7 -10 -26 -32 -41 -50 -17 -21 -29 -48 -32 -80 -17
-139 -28 -190 -54 -233 -14 -25 -41 -76 -59 -115 -18 -38 -33 -65 -33 -58 0
21 40 116 69 163 34 54 50 116 61 228 7 79 9 86 46 123 38 39 68 54 43 22z
m3279 -70 c-23 -46 -41 -100 -45 -131 -3 -29 -10 -55 -14 -58 -15 -9 -23 28
-10 48 9 15 8 26 -5 53 -18 38 -29 47 -19 15 11 -35 -20 -23 -38 15 -20 41
-21 49 -7 40 9 -6 14 8 11 28 -4 26 21 45 62 45 24 1 54 6 68 11 13 5 27 10
30 10 3 1 -12 -34 -33 -76z m-2649 -192 c23 -35 41 -75 41 -89 0 -25 -12 -24
-16 2 -4 27 -17 61 -29 76 -18 23 -60 96 -48 85 6 -5 29 -39 52 -74z m2024
-122 c-15 -31 -38 -47 -50 -35 -7 7 46 66 58 66 4 0 1 -14 -8 -31z m-1987 -87
c-13 -12 -17 8 -9 44 l8 39 3 -39 c2 -21 1 -41 -2 -44z m1 -94 c-3 -7 -5 -2
-5 12 0 14 2 19 5 13 2 -7 2 -19 0 -25z m1893 22 c0 -13 -49 -44 -57 -36 -9 8
27 46 44 46 7 0 13 -4 13 -10z m-1815 -230 c8 -33 17 -77 19 -100 2 -22 9 -46
14 -53 10 -13 26 -106 25 -147 -1 -14 -10 -50 -21 -80 -18 -47 -25 -56 -53
-63 -18 -5 -47 -7 -63 -4 -43 6 -161 -20 -223 -49 -29 -14 -64 -39 -78 -57
-53 -66 -50 -65 -53 -27 -2 19 -8 40 -13 47 -6 6 -11 51 -11 99 -1 84 -14 159
-37 216 -12 32 -5 58 15 58 8 0 48 16 90 35 41 19 110 46 152 60 155 52 212
77 212 96 0 9 -11 41 -25 71 -14 29 -25 60 -25 68 0 26 59 -108 75 -170z
m-938 134 c-3 -3 -12 -4 -19 -1 -8 3 -5 6 6 6 11 1 17 -2 13 -5z m2908 -15
c-8 -12 -35 -12 -35 0 0 11 22 20 33 14 4 -2 5 -9 2 -14z m333 -269 c8 0 21 8
28 18 12 15 13 14 14 -10 0 -21 5 -28 20 -28 13 0 18 -5 14 -15 -4 -8 -2 -15
4 -15 6 0 8 -9 5 -21 -4 -12 3 -32 16 -50 12 -16 17 -29 12 -29 -15 0 8 -48
46 -96 18 -23 33 -46 33 -52 0 -6 17 -24 37 -41 25 -21 32 -31 21 -31 -9 0
-20 5 -23 10 -3 6 -10 10 -15 10 -8 0 -60 -66 -108 -137 -13 -19 -42 -43 -65
-54 -23 -11 -60 -31 -82 -44 -22 -14 -43 -25 -46 -25 -4 0 -11 19 -17 43 -6
23 -17 70 -26 104 -20 77 -21 172 -3 198 8 11 22 44 33 74 15 42 16 55 6 59
-10 3 -10 7 -1 18 6 7 9 19 7 26 -3 7 2 19 9 27 10 10 11 17 4 24 -18 18 -13
25 14 19 23 -4 25 -1 26 29 0 32 1 33 11 12 6 -13 18 -23 26 -23z m696 -791
c3 -17 5 -43 5 -58 -1 -15 -5 -6 -9 21 -5 26 -15 55 -24 64 -21 21 -20 27 3
15 10 -6 21 -25 25 -42z m-189 -41 c-1 -18 4 -44 12 -58 l14 -25 -20 24 c-20
22 -28 71 -14 84 10 11 11 9 8 -25z m-824 -133 c-6 -44 -7 -47 -13 -21 -3 17
-2 41 3 54 14 36 17 24 10 -33z m200 -27 c-8 -20 -9 -18 -9 15 1 26 4 34 10
24 4 -9 4 -26 -1 -39z"/>
<path d="M5888 2005 c-2 -2 -37 -5 -78 -6 -91 -3 -119 -12 -116 -35 5 -33 62
-43 156 -28 150 23 150 23 150 44 0 11 -3 20 -7 21 -41 5 -102 7 -105 4z"/>
<path d="M5665 1980 c-3 -5 -1 -10 4 -10 6 0 11 5 11 10 0 6 -2 10 -4 10 -3 0
-8 -4 -11 -10z"/>
<path d="M5528 1973 c7 -3 16 -2 19 1 4 3 -2 6 -13 5 -11 0 -14 -3 -6 -6z"/>
<path d="M5568 1973 c7 -3 16 -2 19 1 4 3 -2 6 -13 5 -11 0 -14 -3 -6 -6z"/>
<path d="M5472 1908 c-85 -10 -152 -24 -165 -33 -20 -14 -16 -15 53 -15 41 1
111 7 154 15 44 8 82 14 85 13 28 -3 51 4 51 16 0 22 -28 23 -178 4z"/>
<path d="M5965 1850 c-48 -10 -100 -50 -65 -50 6 0 10 -6 9 -12 -4 -32 2 -38
41 -38 46 0 53 9 48 67 -3 38 -4 39 -33 33z"/>
<path d="M5925 1530 c-27 -16 -75 -38 -105 -50 -83 -32 -110 -44 -110 -50 0
-10 104 -10 164 0 34 6 76 13 94 16 32 5 32 6 32 59 0 64 -3 65 -75 25z"/>
<path d="M5865 1372 l-80 -16 40 -8 c53 -12 175 8 175 28 0 18 -31 17 -135 -4z"/>
</g>
</svg>
